<svg xmlns="http://www.w3.org/2000/svg" viewBox="0 0 1000 1000" width="1000" height="1000" role="img" aria-labelledby="pk-title pk-desc"><title id="pk-title">Bolu Pandan Gula Aren</title><desc id="pk-desc">Ilustrasi bolu chiffon pandan berbentuk tulban dengan siraman gula aren cair.</desc><defs ><filter id="pk-soft" x="-30%" y="-30%" width="160%" height="160%"><feGaussianBlur stdDeviation="26"/></filter><filter id="pk-glow" x="-40%" y="-40%" width="180%" height="180%"><feGaussianBlur stdDeviation="12"/></filter><filter id="pk-grain" x="0" y="0" width="100%" height="100%"><feTurbulence type="fractalNoise" baseFrequency="0.9" numOctaves="3" result="noise"/><feColorMatrix type="saturate" values="0"/></filter><radialGradient id="pk-ground" cx="50%" cy="50%" r="50%"><stop offset="0%" stop-color="#1b1215" stop-opacity="0.3"/><stop offset="70%" stop-color="#1b1215" stop-opacity="0.08"/><stop offset="100%" stop-color="#1b1215" stop-opacity="0"/></radialGradient><linearGradient id="pk-gloss" x1="0" y1="0" x2="1" y2="1"><stop offset="0%" stop-color="#ffffff" stop-opacity="0.72"/><stop offset="55%" stop-color="#ffffff" stop-opacity="0.16"/><stop offset="100%" stop-color="#ffffff" stop-opacity="0"/></linearGradient><radialGradient id="bg-bolu-pandan-gula-aren" cx="46%" cy="34%" r="78%"><stop offset="0%" stop-color="#f3f8e9"/><stop offset="58%" stop-color="#f0f6e4"/><stop offset="100%" stop-color="#cde0b0"/></radialGradient><linearGradient id="ring-bolu-pandan-gula-aren" x1="0" y1="0" x2="1" y2="1"><stop offset="0%" stop-color="#ffffff" stop-opacity="0.55"/><stop offset="100%" stop-color="#ffffff" stop-opacity="0"/></linearGradient><linearGradient id="bolu-pandan-gula-aren-body" x1="0" y1="0" x2="1" y2="0"><stop offset="0%" stop-color="#9fc277"/><stop offset="40%" stop-color="#8fb861"/><stop offset="100%" stop-color="#6f8a4c"/></linearGradient><radialGradient id="bolu-pandan-gula-aren-top" cx="40%" cy="32%" r="74%"><stop offset="0%" stop-color="#b1cd90"/><stop offset="100%" stop-color="#88ae5c"/></radialGradient><linearGradient id="bolu-pandan-gula-aren-glaze" x1="0" y1="0" x2="0" y2="1"><stop offset="0%" stop-color="#a8855b"/><stop offset="100%" stop-color="#6f491f"/></linearGradient></defs><rect width="1000" height="1000" fill="url(#bg-bolu-pandan-gula-aren)"/><path d="M 424.04 196 L 347.53 335.41 L 196 393.84 L 45.84 334.15 L -24.35 196 L 19.34 33.47 L 196 -25.96 L 338.82 64.6 Z" fill="#c1d3b6" opacity="0.55" filter="url(#pk-soft)"/><path d="M 1065.46 742 L 993.44 885 L 838 960.52 L 664.85 901.3 L 585.43 742 L 634.22 554.53 L 838 535.39 L 1040.57 555.64 Z" fill="#d8c4a7" opacity="0.5" filter="url(#pk-soft)"/><path d="M 990.6 174 L 928.3 281 L 812 306.87 L 706.7 270.88 L 638.12 174 L 708.94 79.19 L 812 35.54 L 926.33 68.82 Z" fill="#e9ddcc" opacity="0.42" filter="url(#pk-soft)"/><circle cx="500" cy="470" r="324" fill="#ffffff" opacity="0.2"/><circle cx="500" cy="470" r="352" fill="none" stroke="url(#ring-bolu-pandan-gula-aren)" stroke-width="3"/><g transform="translate(500 512) scale(1.12) translate(-500 -512)"><ellipse cx="500" cy="750" rx="339.84" ry="40" fill="url(#pk-ground)"/><path d="M 212 402 L 212 706 A 288 80.64000000000001 0 0 0 788 706 L 788 402 A 288 80.64000000000001 0 0 1 212 402 Z" fill="url(#bolu-pandan-gula-aren-body)"/><ellipse cx="500" cy="402" rx="288" ry="80.64" fill="url(#bolu-pandan-gula-aren-top)"/><path d="M 229.28000000000003 402 A 270.71999999999997 75.80160000000001 0 0 0 770.72 402 A 270.71999999999997 75.80160000000001 0 0 0 229.28000000000003 402 Z" fill="url(#bolu-pandan-gula-aren-glaze)" opacity="0.94"/><path d="M 235.47 430.44 C 235.47 492.86 233.15 534.47 250.94 534.47 C 268.73 534.47 266.41 492.86 266.41 430.44 Z" fill="url(#bolu-pandan-gula-aren-glaze)"/><path d="M 286.72 451.13 C 286.72 511.28 284.62 551.39 300.75 551.39 C 316.88 551.39 314.78 511.28 314.78 451.13 Z" fill="url(#bolu-pandan-gula-aren-glaze)"/><path d="M 335.95 462.52 C 335.95 566.39 333.75 635.65 350.56 635.65 C 367.37 635.65 365.18 566.39 365.18 462.52 Z" fill="url(#bolu-pandan-gula-aren-glaze)"/><path d="M 383.44 469.48 C 383.44 517.53 380.89 549.56 400.38 549.56 C 419.86 549.56 417.32 517.53 417.32 469.48 Z" fill="url(#bolu-pandan-gula-aren-glaze)"/><path d="M 432.25 473.34 C 432.25 532.41 429.56 571.79 450.19 571.79 C 470.82 571.79 468.13 532.41 468.13 473.34 Z" fill="url(#bolu-pandan-gula-aren-glaze)"/><path d="M 484.36 474.58 C 484.36 547.45 482.02 596.03 500 596.03 C 517.98 596.03 515.64 547.45 515.64 474.58 Z" fill="url(#bolu-pandan-gula-aren-glaze)"/><path d="M 536.91 473.34 C 536.91 553.2 534.98 606.44 549.81 606.44 C 564.65 606.44 562.71 553.2 562.71 473.34 Z" fill="url(#bolu-pandan-gula-aren-glaze)"/><path d="M 585.64 469.48 C 585.64 564.99 583.54 628.66 599.62 628.66 C 615.71 628.66 613.61 564.99 613.61 469.48 Z" fill="url(#bolu-pandan-gula-aren-glaze)"/><path d="M 635.11 462.52 C 635.11 551.52 632.96 610.85 649.44 610.85 C 665.92 610.85 663.77 551.52 663.77 462.52 Z" fill="url(#bolu-pandan-gula-aren-glaze)"/><path d="M 687.01 451.13 C 687.01 500.7 685.17 533.74 699.25 533.74 C 713.33 533.74 711.49 500.7 711.49 451.13 Z" fill="url(#bolu-pandan-gula-aren-glaze)"/><path d="M 729.5 430.44 C 729.5 499.02 726.57 544.74 749.06 544.74 C 771.56 544.74 768.62 499.02 768.62 430.44 Z" fill="url(#bolu-pandan-gula-aren-glaze)"/><ellipse cx="500" cy="402" rx="92" ry="31.28" fill="#5b6d3f"/><ellipse cx="500" cy="410" rx="79.12" ry="25.76" fill="#475132"/></g><rect width="1000" height="1000" filter="url(#pk-grain)" opacity="0.06" style="mix-blend-mode:multiply"/></svg>
