<svg xmlns="http://www.w3.org/2000/svg" viewBox="0 0 1000 1000" width="1000" height="1000" role="img" aria-labelledby="pk-title pk-desc"><title id="pk-title">Opera Kopi Susu</title><desc id="pk-desc">Ilustrasi kue opera dengan enam lapisan tipis dan glasir cokelat mengkilap.</desc><defs ><filter id="pk-soft" x="-30%" y="-30%" width="160%" height="160%"><feGaussianBlur stdDeviation="26"/></filter><filter id="pk-glow" x="-40%" y="-40%" width="180%" height="180%"><feGaussianBlur stdDeviation="12"/></filter><filter id="pk-grain" x="0" y="0" width="100%" height="100%"><feTurbulence type="fractalNoise" baseFrequency="0.9" numOctaves="3" result="noise"/><feColorMatrix type="saturate" values="0"/></filter><radialGradient id="pk-ground" cx="50%" cy="50%" r="50%"><stop offset="0%" stop-color="#1b1215" stop-opacity="0.3"/><stop offset="70%" stop-color="#1b1215" stop-opacity="0.08"/><stop offset="100%" stop-color="#1b1215" stop-opacity="0"/></radialGradient><linearGradient id="pk-gloss" x1="0" y1="0" x2="1" y2="1"><stop offset="0%" stop-color="#ffffff" stop-opacity="0.72"/><stop offset="55%" stop-color="#ffffff" stop-opacity="0.16"/><stop offset="100%" stop-color="#ffffff" stop-opacity="0"/></linearGradient><radialGradient id="bg-opera-kopi-susu" cx="46%" cy="34%" r="78%"><stop offset="0%" stop-color="#f5ede5"/><stop offset="58%" stop-color="#f3e9df"/><stop offset="100%" stop-color="#d5bda3"/></radialGradient><linearGradient id="ring-opera-kopi-susu" x1="0" y1="0" x2="1" y2="1"><stop offset="0%" stop-color="#ffffff" stop-opacity="0.55"/><stop offset="100%" stop-color="#ffffff" stop-opacity="0"/></linearGradient><linearGradient id="opera-kopi-susu-top" x1="0" y1="0" x2="1" y2="1"><stop offset="0%" stop-color="#6c605b"/><stop offset="100%" stop-color="#2e1e1a"/></linearGradient></defs><rect width="1000" height="1000" fill="url(#bg-opera-kopi-susu)"/><path d="M 394.28 196 L 380.61 365.84 L 196 426.25 L 45.86 334.13 L -29.34 196 L 26.45 40.01 L 196 -11.16 L 356.61 48.24 Z" fill="#bab2ae" opacity="0.55" filter="url(#pk-soft)"/><path d="M 1137.58 742 L 1024.3 913.4 L 838 953.11 L 672.05 894.67 L 546.29 742 L 681.26 597.8 L 838 538.93 L 1024.4 570.51 Z" fill="#d8c8ba" opacity="0.5" filter="url(#pk-soft)"/><path d="M 966.58 174 L 922.89 276.02 L 812 337.93 L 681.59 293.98 L 660.55 174 L 711.08 81.15 L 812 45.46 L 932.65 63.01 Z" fill="#e9dfd7" opacity="0.42" filter="url(#pk-soft)"/><circle cx="500" cy="470" r="324" fill="#ffffff" opacity="0.2"/><circle cx="500" cy="470" r="352" fill="none" stroke="url(#ring-opera-kopi-susu)" stroke-width="3"/><g transform="translate(500 512) scale(1.12) translate(-500 -512)"><ellipse cx="500" cy="758" rx="340" ry="40" fill="url(#pk-ground)"/><path d="M 786 372 L 878 314.96 L 878 648.96 L 786 706 Z" fill="#877057"/><rect x="214" y="372" width="572" height="42.35" fill="#ccae87"/><rect x="214" y="413.75" width="572" height="42.35" fill="#432f27"/><rect x="214" y="455.5" width="572" height="42.35" fill="#ccae87"/><rect x="214" y="497.25" width="572" height="42.35" fill="#432f27"/><rect x="214" y="539" width="572" height="42.35" fill="#ccae87"/><rect x="214" y="580.75" width="572" height="42.35" fill="#432f27"/><rect x="214" y="622.5" width="572" height="42.35" fill="#ccae87"/><rect x="214" y="664.25" width="572" height="42.35" fill="#432f27"/><circle cx="225.77" cy="670.17" r="3.13" fill="#ffffff" opacity="0.06"/><circle cx="440.73" cy="571.41" r="2.22" fill="#ffffff" opacity="0.07"/><circle cx="690.21" cy="661.18" r="3.63" fill="#ffffff" opacity="0.07"/><circle cx="239.67" cy="449.21" r="3.09" fill="#ffffff" opacity="0.11"/><circle cx="372.84" cy="619.28" r="3.07" fill="#ffffff" opacity="0.1"/><circle cx="235.18" cy="670.41" r="1.91" fill="#ffffff" opacity="0.08"/><circle cx="448.75" cy="508.24" r="3.61" fill="#ffffff" opacity="0.1"/><circle cx="529.97" cy="414.95" r="2.51" fill="#ffffff" opacity="0.11"/><circle cx="477.87" cy="699.21" r="2.48" fill="#ffffff" opacity="0.08"/><circle cx="572.32" cy="672.12" r="1.26" fill="#ffffff" opacity="0.08"/><circle cx="415.84" cy="492.17" r="3.02" fill="#ffffff" opacity="0.11"/><circle cx="479.86" cy="661.8" r="2.49" fill="#ffffff" opacity="0.04"/><circle cx="558.01" cy="409.57" r="1.61" fill="#ffffff" opacity="0.06"/><circle cx="310.37" cy="440.78" r="1.62" fill="#ffffff" opacity="0.08"/><circle cx="769.4" cy="416.02" r="3.01" fill="#ffffff" opacity="0.12"/><circle cx="501" cy="396.43" r="3.6" fill="#ffffff" opacity="0.06"/><circle cx="777" cy="434.2" r="2.82" fill="#ffffff" opacity="0.1"/><circle cx="359.74" cy="381.25" r="1.93" fill="#ffffff" opacity="0.07"/><circle cx="355.36" cy="580.18" r="2.72" fill="#ffffff" opacity="0.08"/><circle cx="600.6" cy="377.49" r="3.75" fill="#ffffff" opacity="0.09"/><circle cx="713.61" cy="705.4" r="3.35" fill="#ffffff" opacity="0.08"/><circle cx="552.16" cy="602.97" r="3.33" fill="#ffffff" opacity="0.09"/><circle cx="348.44" cy="537.13" r="2.71" fill="#ffffff" opacity="0.09"/><circle cx="412.73" cy="619.75" r="1.75" fill="#ffffff" opacity="0.1"/><circle cx="256.35" cy="539.07" r="2.44" fill="#ffffff" opacity="0.09"/><circle cx="406.69" cy="384.09" r="2.39" fill="#ffffff" opacity="0.08"/><circle cx="390.64" cy="674.23" r="3.46" fill="#ffffff" opacity="0.07"/><circle cx="247.3" cy="430.49" r="3.22" fill="#ffffff" opacity="0.08"/><circle cx="760.95" cy="698.82" r="2.09" fill="#ffffff" opacity="0.05"/><circle cx="475.67" cy="465.91" r="1.35" fill="#ffffff" opacity="0.09"/><circle cx="321.71" cy="379.31" r="1.6" fill="#ffffff" opacity="0.1"/><circle cx="486.06" cy="412.96" r="3.73" fill="#ffffff" opacity="0.04"/><circle cx="761.87" cy="475.9" r="2.46" fill="#ffffff" opacity="0.04"/><circle cx="614.65" cy="486.09" r="2.96" fill="#ffffff" opacity="0.08"/><circle cx="781.58" cy="557.67" r="3.76" fill="#ffffff" opacity="0.07"/><circle cx="659.65" cy="679.66" r="3.54" fill="#ffffff" opacity="0.12"/><circle cx="456.24" cy="394.87" r="2.13" fill="#ffffff" opacity="0.06"/><circle cx="360.81" cy="686.9" r="2.62" fill="#ffffff" opacity="0.06"/><circle cx="666.1" cy="586.45" r="3.2" fill="#ffffff" opacity="0.11"/><circle cx="314.96" cy="449.33" r="3.77" fill="#ffffff" opacity="0.06"/><circle cx="435.33" cy="552.38" r="2.82" fill="#ffffff" opacity="0.05"/><circle cx="365.78" cy="581.56" r="2.59" fill="#ffffff" opacity="0.11"/><circle cx="299.98" cy="510.71" r="3.13" fill="#ffffff" opacity="0.08"/><circle cx="611.27" cy="450.06" r="3.28" fill="#ffffff" opacity="0.07"/><circle cx="365.63" cy="619.78" r="2.82" fill="#ffffff" opacity="0.07"/><circle cx="449.34" cy="388.94" r="2.41" fill="#ffffff" opacity="0.06"/><circle cx="628.23" cy="561.64" r="3" fill="#ffffff" opacity="0.05"/><circle cx="650.12" cy="679.81" r="2.45" fill="#ffffff" opacity="0.08"/><circle cx="540.51" cy="381.55" r="2.12" fill="#ffffff" opacity="0.05"/><circle cx="470.26" cy="508.07" r="3.47" fill="#ffffff" opacity="0.09"/><circle cx="240.1" cy="568.78" r="2.27" fill="#ffffff" opacity="0.11"/><circle cx="419.5" cy="609.19" r="2.41" fill="#ffffff" opacity="0.08"/><circle cx="725.33" cy="447.16" r="3.13" fill="#ffffff" opacity="0.07"/><circle cx="342.58" cy="678.15" r="1.95" fill="#ffffff" opacity="0.09"/><circle cx="288.09" cy="543.36" r="2.45" fill="#ffffff" opacity="0.07"/><circle cx="359.68" cy="593.08" r="3.25" fill="#ffffff" opacity="0.06"/><circle cx="370.79" cy="696.73" r="2.65" fill="#ffffff" opacity="0.09"/><circle cx="351.05" cy="531.63" r="2.06" fill="#ffffff" opacity="0.11"/><circle cx="723.18" cy="457.13" r="2.63" fill="#ffffff" opacity="0.07"/><circle cx="236.89" cy="384.56" r="1.51" fill="#ffffff" opacity="0.09"/><circle cx="581.8" cy="515.47" r="1.63" fill="#ffffff" opacity="0.06"/><circle cx="351.3" cy="615.05" r="2.29" fill="#ffffff" opacity="0.06"/><circle cx="501.19" cy="654.37" r="3.65" fill="#ffffff" opacity="0.04"/><circle cx="216.16" cy="508.79" r="3.31" fill="#ffffff" opacity="0.07"/><circle cx="372.7" cy="535.34" r="2.5" fill="#ffffff" opacity="0.08"/><circle cx="230.86" cy="687.17" r="3.11" fill="#ffffff" opacity="0.09"/><circle cx="559.17" cy="525.16" r="3.46" fill="#ffffff" opacity="0.09"/><circle cx="215.93" cy="506.33" r="2.19" fill="#ffffff" opacity="0.09"/><circle cx="296.8" cy="477.88" r="1.97" fill="#ffffff" opacity="0.04"/><circle cx="246.7" cy="538.24" r="3.54" fill="#ffffff" opacity="0.1"/><circle cx="574.96" cy="610.96" r="2.56" fill="#ffffff" opacity="0.05"/><circle cx="658.08" cy="597.87" r="1.53" fill="#ffffff" opacity="0.12"/><circle cx="366.75" cy="696.65" r="3.33" fill="#ffffff" opacity="0.07"/><circle cx="273.85" cy="470.21" r="2.96" fill="#ffffff" opacity="0.11"/><circle cx="767.72" cy="536.27" r="1.38" fill="#ffffff" opacity="0.05"/><circle cx="272.4" cy="561.1" r="3.16" fill="#ffffff" opacity="0.11"/><circle cx="544" cy="663.44" r="1.21" fill="#ffffff" opacity="0.09"/><circle cx="779.24" cy="534.23" r="3.18" fill="#ffffff" opacity="0.05"/><circle cx="294.7" cy="579.16" r="3.05" fill="#ffffff" opacity="0.11"/><circle cx="393.87" cy="480.3" r="1.93" fill="#ffffff" opacity="0.05"/><circle cx="653.51" cy="578.38" r="2.49" fill="#ffffff" opacity="0.06"/><circle cx="397.04" cy="595.83" r="1.34" fill="#ffffff" opacity="0.07"/><circle cx="532.38" cy="638.87" r="2.31" fill="#ffffff" opacity="0.09"/><circle cx="340.15" cy="411.91" r="2.22" fill="#ffffff" opacity="0.06"/><circle cx="711.11" cy="655.08" r="2" fill="#ffffff" opacity="0.05"/><circle cx="675.64" cy="512.47" r="1.46" fill="#ffffff" opacity="0.09"/><circle cx="404.75" cy="536.9" r="1.28" fill="#ffffff" opacity="0.09"/><circle cx="269" cy="582.31" r="1.94" fill="#ffffff" opacity="0.09"/><circle cx="359.47" cy="701.49" r="3.21" fill="#ffffff" opacity="0.06"/><circle cx="459.79" cy="625.7" r="2.48" fill="#ffffff" opacity="0.11"/><path d="M 214 372 L 306 314.96 L 878 314.96 L 786 372 Z" fill="url(#opera-kopi-susu-top)"/><path d="M 248 364 L 316 326.96 L 496 326.96 L 428 364 Z" fill="#ffffff" opacity="0.2"/></g><rect width="1000" height="1000" filter="url(#pk-grain)" opacity="0.06" style="mix-blend-mode:multiply"/></svg>
