<svg xmlns="http://www.w3.org/2000/svg" viewBox="0 0 1000 1000" width="1000" height="1000" role="img" aria-labelledby="pk-title pk-desc"><title id="pk-title">Red Velvet Mawar</title><desc id="pk-desc">Ilustrasi kue red velvet tiga lapis dengan krim keju dan hiasan mawar krim.</desc><defs ><filter id="pk-soft" x="-30%" y="-30%" width="160%" height="160%"><feGaussianBlur stdDeviation="26"/></filter><filter id="pk-glow" x="-40%" y="-40%" width="180%" height="180%"><feGaussianBlur stdDeviation="12"/></filter><filter id="pk-grain" x="0" y="0" width="100%" height="100%"><feTurbulence type="fractalNoise" baseFrequency="0.9" numOctaves="3" result="noise"/><feColorMatrix type="saturate" values="0"/></filter><radialGradient id="pk-ground" cx="50%" cy="50%" r="50%"><stop offset="0%" stop-color="#1b1215" stop-opacity="0.3"/><stop offset="70%" stop-color="#1b1215" stop-opacity="0.08"/><stop offset="100%" stop-color="#1b1215" stop-opacity="0"/></radialGradient><linearGradient id="pk-gloss" x1="0" y1="0" x2="1" y2="1"><stop offset="0%" stop-color="#ffffff" stop-opacity="0.72"/><stop offset="55%" stop-color="#ffffff" stop-opacity="0.16"/><stop offset="100%" stop-color="#ffffff" stop-opacity="0"/></linearGradient><radialGradient id="bg-red-velvet-mawar" cx="46%" cy="34%" r="78%"><stop offset="0%" stop-color="#fdf1f3"/><stop offset="58%" stop-color="#fdeef0"/><stop offset="100%" stop-color="#f2bfc8"/></radialGradient><linearGradient id="ring-red-velvet-mawar" x1="0" y1="0" x2="1" y2="1"><stop offset="0%" stop-color="#ffffff" stop-opacity="0.55"/><stop offset="100%" stop-color="#ffffff" stop-opacity="0"/></linearGradient><linearGradient id="red-velvet-mawar-c0" x1="0" y1="0" x2="1" y2="0"><stop offset="0%" stop-color="#b24658"/><stop offset="38%" stop-color="#a32338"/><stop offset="100%" stop-color="#851f30"/></linearGradient><linearGradient id="red-velvet-mawar-c1" x1="0" y1="0" x2="1" y2="0"><stop offset="0%" stop-color="#f7efe7"/><stop offset="38%" stop-color="#f6ece3"/><stop offset="100%" stop-color="#c6bcb6"/></linearGradient><linearGradient id="red-velvet-mawar-c2" x1="0" y1="0" x2="1" y2="0"><stop offset="0%" stop-color="#b24658"/><stop offset="38%" stop-color="#a32338"/><stop offset="100%" stop-color="#851f30"/></linearGradient><linearGradient id="red-velvet-mawar-c3" x1="0" y1="0" x2="1" y2="0"><stop offset="0%" stop-color="#f7efe7"/><stop offset="38%" stop-color="#f6ece3"/><stop offset="100%" stop-color="#c6bcb6"/></linearGradient><linearGradient id="red-velvet-mawar-c4" x1="0" y1="0" x2="1" y2="0"><stop offset="0%" stop-color="#b24658"/><stop offset="38%" stop-color="#a32338"/><stop offset="100%" stop-color="#851f30"/></linearGradient><radialGradient id="red-velvet-mawar-top" cx="38%" cy="30%" r="76%"><stop offset="0%" stop-color="#f9f2ed"/><stop offset="64%" stop-color="#f6ece3"/><stop offset="100%" stop-color="#dcd2ca"/></radialGradient></defs><rect width="1000" height="1000" fill="url(#bg-red-velvet-mawar)"/><path d="M 450.86 196 L 348.29 336.11 L 196 388.49 L 51.59 328.86 L -53.35 196 L 34.77 47.67 L 196 1.32 L 383 23.96 Z" fill="#dcabb3" opacity="0.55" filter="url(#pk-soft)"/><path d="M 1090.92 742 L 1003.12 893.91 L 838 987.24 L 669.94 896.62 L 553.15 742 L 631.4 551.93 L 838 480.18 L 1022.56 572.2 Z" fill="#f4cbd3" opacity="0.5" filter="url(#pk-soft)"/><path d="M 966.74 174 L 914.54 268.33 L 812 302.95 L 693.78 282.77 L 669.71 174 L 701.13 72 L 812 39.69 L 934.7 61.11 Z" fill="#f9e1e6" opacity="0.42" filter="url(#pk-soft)"/><circle cx="500" cy="470" r="324" fill="#ffffff" opacity="0.2"/><circle cx="500" cy="470" r="352" fill="none" stroke="url(#ring-red-velvet-mawar)" stroke-width="3"/><g transform="translate(500 512) scale(1.12) translate(-500 -512)"><ellipse cx="500" cy="784" rx="332.32" ry="42" fill="url(#pk-ground)"/><ellipse cx="500" cy="764" rx="310.88" ry="80.8288" fill="#efe0cc"/><path d="M 232 633.05 L 232 738 A 268 69.68 0 0 0 768 738 L 768 633.05 A 268 69.68 0 0 1 232 633.05 Z" fill="url(#red-velvet-mawar-c0)"/><path d="M 232 599.47 L 232 633.05 A 268 69.68 0 0 0 768 633.05 L 768 599.47 A 268 69.68 0 0 1 232 599.47 Z" fill="url(#red-velvet-mawar-c1)"/><path d="M 232 494.53 L 232 599.47 A 268 69.68 0 0 0 768 599.47 L 768 494.53 A 268 69.68 0 0 1 232 494.53 Z" fill="url(#red-velvet-mawar-c2)"/><path d="M 232 460.95 L 232 494.53 A 268 69.68 0 0 0 768 494.53 L 768 460.95 A 268 69.68 0 0 1 232 460.95 Z" fill="url(#red-velvet-mawar-c3)"/><path d="M 232 356 L 232 460.95 A 268 69.68 0 0 0 768 460.95 L 768 356 A 268 69.68 0 0 1 232 356 Z" fill="url(#red-velvet-mawar-c4)"/><ellipse cx="500" cy="356" rx="268" ry="69.68" fill="url(#red-velvet-mawar-top)"/><circle cx="709.04" cy="356" r="38.06" fill="#f8f1ea"/><circle cx="701.43" cy="346.86" r="19.79" fill="#faf5f0" opacity="0.85"/><circle cx="660.13" cy="390.94" r="32.58" fill="#f8f1ea"/><circle cx="653.62" cy="383.12" r="16.94" fill="#faf5f0" opacity="0.85"/><circle cx="536.3" cy="409.52" r="31.73" fill="#f8f1ea"/><circle cx="529.95" cy="401.91" r="16.5" fill="#faf5f0" opacity="0.85"/><circle cx="395.48" cy="403.07" r="31.03" fill="#f8f1ea"/><circle cx="389.27" cy="395.62" r="16.14" fill="#faf5f0" opacity="0.85"/><circle cx="303.57" cy="374.59" r="37.3" fill="#f8f1ea"/><circle cx="296.11" cy="365.64" r="19.4" fill="#faf5f0" opacity="0.85"/><circle cx="303.57" cy="337.41" r="34.33" fill="#f8f1ea"/><circle cx="296.7" cy="329.17" r="17.85" fill="#faf5f0" opacity="0.85"/><circle cx="395.48" cy="308.93" r="32.06" fill="#f8f1ea"/><circle cx="389.07" cy="301.24" r="16.67" fill="#faf5f0" opacity="0.85"/><circle cx="536.3" cy="302.48" r="39.4" fill="#f8f1ea"/><circle cx="528.42" cy="293.02" r="20.49" fill="#faf5f0" opacity="0.85"/><circle cx="660.13" cy="321.06" r="31.11" fill="#f8f1ea"/><circle cx="653.91" cy="313.6" r="16.18" fill="#faf5f0" opacity="0.85"/><path d="M 0 -20.84 C 12.02 -6.95 12.02 10.42 0 20.84 C -12.02 10.42 -12.02 -6.95 0 -20.84 Z" fill="#c33a52" transform="translate(520 341.27) rotate(62.16)"/><path d="M 0 -31.72 C 18.3 -10.57 18.3 15.86 0 31.72 C -18.3 15.86 -18.3 -10.57 0 -31.72 Z" fill="#e07d90" transform="translate(490.6 335.8) rotate(74.05)"/><path d="M 0 -24.59 C 14.18 -8.2 14.18 12.29 0 24.59 C -14.18 12.29 -14.18 -8.2 0 -24.59 Z" fill="#c33a52" transform="translate(569.66 371.92) rotate(232.04)"/><path d="M 0 -24.38 C 14.07 -8.13 14.07 12.19 0 24.38 C -14.07 12.19 -14.07 -8.13 0 -24.38 Z" fill="#e07d90" transform="translate(605.42 360.35) rotate(6.63)"/></g><rect width="1000" height="1000" filter="url(#pk-grain)" opacity="0.06" style="mix-blend-mode:multiply"/></svg>
